<svg version="1.2" xmlns="http://www.w3.org/2000/svg" viewBox="0 0 540 357" width="540" height="357">
	<title>noun-library-3535133-svg</title>
	<style>
		.s0 { fill: #000000 } 
	</style>
	<g id="Layer">
		<path id="Layer" class="s0" d="m91.7 250.7v30.5h248.8v-30.5h34.4v59.7h-317.5v-59.7z"/>
		<path id="Layer" class="s0" d="m128 241.3c0 1.6-1.3 2.9-2.9 2.9-1.6 0-2.9-1.3-2.9-2.9 0-1.6 1.3-2.9 2.9-2.9 1.6 0 2.9 1.3 2.9 2.9z"/>
		<path id="Layer" fill-rule="evenodd" class="s0" d="m166.9 208.2v66.2h-68.4v-30.4h-15.3v-35.8zm-33.6 38.4l-2.5-2.3c0.5-0.9 0.8-1.9 0.8-3 0-1.2-0.3-2.3-0.9-3.3l2.3-2.4c0.7-0.7 0.7-1.8 0-2.5-0.7-0.7-1.9-0.7-2.6 0.1l-2.3 2.4c-0.9-0.5-1.9-0.8-3-0.8-1.2 0-2.3 0.3-3.3 0.9l-2.4-2.3c-0.7-0.7-1.8-0.7-2.5 0.1-0.7 0.7-0.7 1.8 0.1 2.5l2.4 2.3c-0.5 0.9-0.8 1.9-0.8 3 0 1.2 0.4 2.3 0.9 3.3l-2.3 2.4c-0.7 0.7-0.7 1.8 0.1 2.5 0.3 0.3 0.7 0.5 1.2 0.5 0.5 0 0.9-0.2 1.3-0.6l2.3-2.4c0.9 0.5 1.9 0.8 3 0.8 1.2 0 2.3-0.3 3.3-0.9l2.4 2.3c0.3 0.3 0.8 0.5 1.2 0.5 0.5 0 0.9-0.2 1.3-0.6 0.7-0.7 0.7-1.8 0-2.5z"/>
		<path id="Layer" fill-rule="evenodd" class="s0" d="m258 208.2v66.2h-83.7v-66.2zm-33.8 38.4l-2.4-2.3c0.5-0.9 0.8-1.9 0.8-3 0-1.2-0.4-2.3-0.9-3.3l2.3-2.4c0.7-0.7 0.7-1.8-0.1-2.5-0.7-0.7-1.8-0.7-2.5 0.1l-2.3 2.4c-0.9-0.5-1.9-0.8-3-0.8-1.2 0-2.3 0.3-3.3 0.9l-2.4-2.3c-0.7-0.7-1.8-0.7-2.5 0.1-0.7 0.7-0.7 1.8 0 2.5l2.4 2.3c-0.4 0.9-0.7 1.9-0.7 3 0 1.2 0.3 2.3 0.9 3.3l-2.3 2.4c-0.7 0.7-0.7 1.8 0 2.5 0.4 0.3 0.8 0.5 1.3 0.5 0.5 0 0.9-0.2 1.3-0.6l2.3-2.4c0.9 0.5 1.9 0.8 3 0.8 1.2 0 2.3-0.3 3.3-0.9l2.4 2.3c0.3 0.3 0.7 0.5 1.2 0.5 0.5 0 0.9-0.2 1.3-0.6 0.7-0.7 0.7-1.8-0.1-2.5z"/>
		<path id="Layer" class="s0" d="m219 241.3c0 1.6-1.3 2.9-2.9 2.9-1.6 0-2.9-1.3-2.9-2.9 0-1.6 1.3-2.9 2.9-2.9 1.6 0 2.9 1.3 2.9 2.9z"/>
		<path id="Layer" class="s0" d="m310 241.3c0 1.6-1.3 2.9-2.9 2.9-1.6 0-2.9-1.3-2.9-2.9 0-1.6 1.3-2.9 2.9-2.9 1.6 0 2.9 1.3 2.9 2.9z"/>
		<path id="Layer" fill-rule="evenodd" class="s0" d="m349 208.2v35.8h-15.3v30.4h-68.4v-66.2zm-33.7 38.4l-2.4-2.3c0.5-0.9 0.7-1.9 0.7-3 0-1.2-0.3-2.3-0.9-3.3l2.3-2.4c0.7-0.7 0.7-1.8 0-2.5-0.7-0.7-1.9-0.7-2.5 0.1l-2.3 2.4c-1-0.5-2-0.8-3.1-0.8-1.2 0-2.3 0.3-3.2 0.9l-2.4-2.3c-0.7-0.7-1.9-0.7-2.6 0.1-0.6 0.7-0.6 1.8 0.1 2.5l2.4 2.3c-0.5 0.9-0.8 1.9-0.8 3 0 1.2 0.4 2.3 0.9 3.3l-2.3 2.4c-0.6 0.7-0.6 1.8 0.1 2.5 0.3 0.3 0.8 0.5 1.2 0.5 0.5 0 0.9-0.2 1.3-0.6l2.3-2.4c0.9 0.5 1.9 0.8 3 0.8 1.2 0 2.4-0.3 3.3-0.9l2.4 2.3c0.4 0.3 0.8 0.5 1.2 0.5 0.5 0 1-0.2 1.3-0.6 0.7-0.7 0.7-1.8 0-2.5z"/>
		<path id="Layer" fill-rule="evenodd" class="s0" d="m482.5 239.8v70.5h-8.4v-26h-83.4v26h-8.4v-70.5zm-59.7 18.1v8.4h19.2v-8.4z"/>
		<path id="Layer" class="s0" d="m446.4 243.8h-28.9l-3.8-33.6h36.5z"/>
		<path id="Layer" class="s0" d="m428.1 180.6h5.6v34.2h-5.6z"/>
		<path id="Layer" class="s0" d="m446.2 174.2c-1.6 3.3-4.8 6-9.1 7.9-3.1 1.4-5.8 1.9-5.9 1.9l-2.1 0.4-0.9-1.9c-0.1-0.1-1.2-2.6-1.9-5.9-0.9-4.6-0.6-8.8 1.1-12 1.7-3.3 4.9-6 9.2-7.9 3.1-1.4 5.7-1.9 5.8-1.9l2.2-0.4 0.9 2c0 0 1.2 2.5 1.9 5.8 0.9 4.6 0.5 8.8-1.2 12z"/>
		<path id="Layer" class="s0" d="m462.6 190.7l-1.1 1.8c-0.1 0.1-1.6 2.3-4.1 4.6-3.4 3.2-7.2 5.1-10.8 5.4q-0.5 0-1 0c-3.4 0-7-1.3-10.5-3.7-2.8-1.9-4.6-3.9-4.7-4l-1.4-1.6 1.1-1.8c0.1-0.1 1.6-2.4 4.1-4.7 3.4-3.2 7.2-5 10.8-5.3 3.7-0.3 7.6 1 11.5 3.6 2.8 1.9 4.6 4 4.7 4.1z"/>
		<path id="Layer" class="s0" d="m432.2 186.9l-1.9 1.1c-0.1 0-2.5 1.4-5.7 2.3q-3.4 1-6.3 1c-2.1 0-4.1-0.4-5.8-1.1-3.4-1.4-6.4-4.3-8.7-8.4-1.6-3-2.3-5.6-2.3-5.7l-0.6-2.1 1.9-1.1c0.1 0 2.4-1.4 5.7-2.3 4.5-1.3 8.7-1.3 12.1 0.1 3.3 1.4 6.3 4.3 8.6 8.4 1.6 3 2.4 5.6 2.4 5.8z"/>
		<path id="Layer" class="s0" d="m356.4 174.1h8.4v69.8h-8.4z"/>
		<path id="Layer" class="s0" d="m399.7 160.5h-78.2l5.2-57.2h67.8z"/>
		<path id="Layer" class="s0" d="m360.6 175c-8.7 0-15.7-7-15.7-15.7h31.4c0 8.6-7 15.7-15.7 15.7z"/>
		<path id="Layer" class="s0" d="m49.5 163.9h225.1v14.5h-225.1z"/>
		<path id="Layer" class="s0" d="m58 113.7h16.8v47.1h-16.8z"/>
		<path id="Layer" class="s0" d="m79.2 113.7h16.8v47.1h-16.8z"/>
		<path id="Layer" class="s0" d="m100.3 113.7h16.8v47.1h-16.8z"/>
		<path id="Layer" class="s0" d="m121.5 113.7h16.8v47.1h-16.8z"/>
		<path id="Layer" class="s0" d="m142.7 113.7h16.8v47.1h-16.8z"/>
		<path id="Layer" class="s0" d="m163.9 113.7h16.8v47.1h-16.8z"/>
		<path id="Layer" class="s0" d="m185.1 113.7h16.8v47.1h-16.8z"/>
		<path id="Layer" class="s0" d="m205.7 121l13.4-10.1 28.3 37.5-13.4 10.1z"/>
		<path id="Layer" fill-rule="evenodd" class="s0" d="m273.9 114.2c-26.1 0-47.3-21.2-47.3-47.3 0-26.1 21.2-47.3 47.3-47.3 26.1 0 47.3 21.2 47.3 47.3 0 26.1-21.2 47.3-47.3 47.3zm0-86.2c-21.5 0-39 17.4-39 38.9 0 21.4 17.5 38.9 39 38.9 21.4 0 38.9-17.5 38.9-38.9 0-21.5-17.5-38.9-38.9-38.9z"/>
		<path id="Layer" fill-rule="evenodd" class="s0" d="m305.8 66.9c0 17.6-14.3 31.9-31.9 31.9-17.7 0-32-14.3-32-31.9 0-17.6 14.3-31.9 32-31.9 17.6 0 31.9 14.2 31.9 31.9zm-8.4 2.8v-5.6h-20.7v-17.9h-5.6v23.5z"/>
		<g id="v">
			<path id="Layer" class="s0" d="m-13.1 449.1q0 0.1-0.1 0.1-0.1 0-0.2 0-0.2 0-0.4-0.1-0.1-0.2-0.1-0.4 0-0.3 0.1-0.4 0.2-0.1 0.4-0.1 0.1 0 0.2 0 0.1 0 0.1 0v0.2q0 0-0.1 0-0.1-0.1-0.2-0.1-0.1 0-0.2 0.1-0.1 0.1-0.1 0.3 0 0.1 0.1 0.2 0.1 0.1 0.2 0.1 0.1 0 0.2 0 0.1 0 0.1-0.1z"/>
		</g>
		<g id="d">
			<path id="Layer" class="s0" d="m-12.3 448.6q0 0 0 0-0.1 0-0.1 0-0.1 0-0.2 0.1 0 0 0 0.1v0.4h-0.2v-0.8h0.2v0.2q0-0.1 0.1-0.2 0.1 0 0.2 0z"/>
		</g>
		<g id="a">
			<path id="Layer" fill-rule="evenodd" class="s0" d="m-11.4 448.8v0.1h-0.6q0 0.1 0.1 0.1 0 0.1 0.1 0.1 0.1 0 0.2-0.1 0.1 0 0.2 0v0.2q-0.1 0-0.2 0-0.1 0-0.2 0-0.2 0-0.3-0.1-0.1-0.1-0.1-0.3 0-0.2 0.1-0.3 0.1-0.1 0.3-0.1 0.2 0 0.3 0.1 0.1 0.1 0.1 0.3zm-0.2-0.1q0 0-0.1-0.1 0 0-0.1 0-0.1 0-0.1 0-0.1 0.1-0.1 0.1z"/>
		</g>
		<g id="k">
			<path id="Layer" fill-rule="evenodd" class="s0" d="m-10.5 448.8v0.4h-0.2v-0.1q-0.1 0.1-0.1 0.1-0.1 0-0.2 0-0.1 0-0.2 0-0.1-0.1-0.1-0.2 0-0.2 0.1-0.2 0.1-0.1 0.3-0.1h0.2q0-0.1-0.1-0.1 0 0-0.1 0-0.1 0-0.2 0 0 0-0.1 0v-0.2q0.1 0 0.1 0 0.1 0 0.2 0 0.2 0 0.3 0.1 0.1 0.1 0.1 0.3zm-0.4 0.1q0 0-0.1 0 0 0 0 0 0 0.1 0 0.1 0 0.1 0.1 0.1 0.1 0 0.1-0.1 0.1 0 0.1-0.1z"/>
		</g>
		<g id="c">
			<path id="Layer" class="s0" d="m-10 448.2v0.2h0.3v0.2h-0.3v0.3q0 0.1 0 0.1 0 0 0.1 0h0.1v0.2h-0.2q-0.1 0-0.2-0.1 0 0 0-0.2v-0.3h-0.2v-0.2h0.2v-0.2z"/>
		</g>
		<g id="a">
			<path id="Layer" fill-rule="evenodd" class="s0" d="m-8.8 448.8v0.1h-0.6q0 0.1 0 0.1 0.1 0.1 0.2 0.1 0.1 0 0.2-0.1 0 0 0.1 0v0.2q-0.1 0-0.1 0-0.1 0-0.2 0-0.2 0-0.3-0.1-0.2-0.1-0.2-0.3 0-0.2 0.2-0.3 0.1-0.1 0.3-0.1 0.2 0 0.3 0.1 0.1 0.1 0.1 0.3zm-0.3-0.1q0 0 0-0.1-0.1 0-0.1 0-0.1 0-0.2 0 0 0.1 0 0.1z"/>
		</g>
		<g id="j">
			<path id="Layer" fill-rule="evenodd" class="s0" d="m-8.1 448.5v-0.4h0.2v1.1h-0.2v-0.1q-0.1 0.1-0.1 0.1-0.1 0-0.2 0-0.1 0-0.2-0.1-0.1-0.1-0.1-0.3 0-0.2 0.1-0.3 0.1-0.1 0.2-0.1 0.1 0 0.2 0 0 0.1 0.1 0.1zm-0.2 0.5q0.1 0 0.1 0 0.1-0.1 0.1-0.2 0-0.1-0.1-0.1 0-0.1-0.1-0.1-0.1 0-0.1 0.1-0.1 0-0.1 0.1 0 0.1 0.1 0.2 0 0 0.1 0z"/>
		</g>
		<g id="i">
			<path id="Layer" fill-rule="evenodd" class="s0" d="m-6.9 448.5q0 0 0.1-0.1 0 0 0.1 0 0.2 0 0.3 0.1 0.1 0.1 0.1 0.3 0 0.2-0.1 0.3-0.1 0.1-0.3 0.1-0.1 0-0.1 0-0.1 0-0.1-0.1v0.1h-0.3v-1.1h0.3zm0.2 0.5q0 0 0.1 0 0-0.1 0-0.2 0-0.1 0-0.2-0.1 0-0.1 0-0.1 0-0.2 0 0 0.1 0 0.2 0 0.1 0 0.2 0.1 0 0.2 0z"/>
		</g>
		<g id="h">
			<path id="Layer" class="s0" d="m-6.3 448.4h0.3l0.2 0.5 0.2-0.5h0.2l-0.3 0.9q-0.1 0.1-0.1 0.1-0.1 0.1-0.2 0.1h-0.1v-0.2q0.1 0 0.1 0 0.1 0 0.1-0.1z"/>
		</g>
		<g id="g">
			<path id="Layer" class="s0" d="m-4.9 448.2h0.3l0.2 0.3 0.3-0.3h0.3l-0.4 0.6v0.4h-0.3v-0.4z"/>
		</g>
		<g id="a">
			<path id="Layer" fill-rule="evenodd" class="s0" d="m-3 448.8v0.1h-0.6q0 0.1 0.1 0.1 0.1 0.1 0.2 0.1 0 0 0.1-0.1 0.1 0 0.2 0v0.2q-0.1 0-0.2 0-0.1 0-0.2 0-0.2 0-0.3-0.1-0.1-0.1-0.1-0.3 0-0.2 0.1-0.3 0.1-0.1 0.3-0.1 0.2 0 0.3 0.1 0.1 0.1 0.1 0.3zm-0.2-0.1q0 0-0.1-0.1 0 0-0.1 0-0.1 0-0.1 0 0 0.1-0.1 0.1z"/>
		</g>
		<g id="b">
			<path id="Layer" fill-rule="evenodd" class="s0" d="m-2.4 448.4q0.2 0 0.3 0.1 0.1 0.1 0.1 0.3 0 0.2-0.1 0.3-0.1 0.1-0.3 0.1-0.2 0-0.3-0.1-0.2-0.1-0.2-0.3 0-0.2 0.2-0.3 0.1-0.1 0.3-0.1zm0 0.2q-0.1 0-0.2 0.1 0 0 0 0.1 0 0.1 0 0.2 0.1 0 0.2 0 0 0 0.1 0 0-0.1 0-0.2 0-0.1 0-0.1-0.1-0.1-0.1-0.1z"/>
		</g>
		<g id="f">
			<path id="Layer" class="s0" d="m-1.8 448.9v-0.5h0.2v0.1 0.2 0.1 0.1q0 0.1 0 0.1 0 0 0.1 0 0.1 0 0.1 0 0.1-0.1 0.1-0.2v-0.4h0.2v0.8h-0.2v-0.1q-0.1 0.1-0.1 0.1-0.1 0-0.2 0-0.1 0-0.2-0.1 0 0 0-0.2z"/>
		</g>
		<g id="u">
			<path id="Layer" class="s0" d="m-0.8 448.1h0.2v1.1h-0.2z"/>
		</g>
		<g id="t">
			<path id="Layer" class="s0" d="m0.1 448.2h0.3v0.3l0.4-0.3h0.3l-0.5 0.5 0.5 0.5h-0.3l-0.4-0.4v0.4h-0.3z"/>
		</g>
		<g id="s">
			<path id="Layer" class="s0" d="m1.1 448.4h0.3l0.1 0.6 0.1-0.6h0.2l0.2 0.5 0.1-0.5h0.2l-0.2 0.8h-0.2l-0.1-0.5-0.2 0.5h-0.3z"/>
		</g>
		<g id="b">
			<path id="Layer" fill-rule="evenodd" class="s0" d="m2.9 448.4q0.2 0 0.3 0.1 0.1 0.1 0.1 0.3 0 0.2-0.1 0.3-0.1 0.1-0.3 0.1-0.2 0-0.3-0.1-0.1-0.1-0.1-0.3 0-0.2 0.1-0.3 0.1-0.1 0.3-0.1zm0 0.2q-0.1 0-0.1 0.1-0.1 0-0.1 0.1 0 0.1 0.1 0.2 0 0 0.1 0 0.1 0 0.1 0 0-0.1 0-0.2 0-0.1 0-0.1 0-0.1-0.1-0.1z"/>
		</g>
		<g id="e">
			<path id="Layer" class="s0" d="m4.2 448.7v0.5h-0.2v-0.4-0.1q0 0 0 0 0-0.1-0.1-0.1 0 0 0 0-0.1 0-0.1 0.1-0.1 0-0.1 0.1v0.4h-0.2v-0.8h0.2v0.1q0.1 0 0.1-0.1 0.1 0 0.2 0 0.1 0 0.2 0.1 0 0.1 0 0.2z"/>
		</g>
		<g id="r">
			<path id="Layer" class="s0" d="m-13.4 449.5v0.2h-0.1q-0.1 0-0.1 0 0 0 0 0.1h0.2v0.2h-0.2v0.6h-0.2v-0.6h-0.2v-0.2h0.2q0-0.2 0-0.2 0.1-0.1 0.2-0.1z"/>
		</g>
		<g id="d">
			<path id="Layer" class="s0" d="m-12.7 450q0 0-0.1 0 0 0 0 0-0.1 0-0.2 0.1 0 0 0 0.1v0.4h-0.3v-0.8h0.3v0.2q0-0.1 0.1-0.1 0-0.1 0.1-0.1h0.1z"/>
		</g>
		<g id="b">
			<path id="Layer" fill-rule="evenodd" class="s0" d="m-12.2 449.8q0.2 0 0.3 0.1 0.1 0.1 0.1 0.3 0 0.2-0.1 0.3-0.1 0.1-0.3 0.1-0.2 0-0.3-0.1-0.1-0.1-0.1-0.3 0-0.2 0.1-0.3 0.1-0.1 0.3-0.1zm0 0.2q-0.1 0-0.1 0.1-0.1 0-0.1 0.1 0 0.1 0.1 0.2 0 0 0.1 0 0.1 0 0.1 0 0.1-0.1 0.1-0.2 0-0.1-0.1-0.1 0-0.1-0.1-0.1z"/>
		</g>
		<g id="q">
			<path id="Layer" class="s0" d="m-10.9 450q0-0.1 0.1-0.1 0.1-0.1 0.1-0.1 0.2 0 0.2 0.1 0.1 0.1 0.1 0.2v0.5h-0.2v-0.4-0.1q0 0-0.1-0.1 0 0 0 0-0.1 0-0.1 0.1-0.1 0-0.1 0.1v0.4h-0.2v-0.4q0-0.1-0.1-0.2 0 0 0 0-0.1 0-0.1 0.1-0.1 0-0.1 0.1v0.4h-0.2v-0.8h0.2v0.1q0.1 0 0.1 0 0.1-0.1 0.2-0.1 0 0 0.1 0.1 0.1 0 0.1 0.1z"/>
		</g>
		<g id="c">
			<path id="Layer" class="s0" d="m-9.4 449.6v0.2h0.2v0.2h-0.2v0.3q0 0.1 0 0.1 0 0 0.1 0h0.1v0.2h-0.2q-0.1 0-0.2-0.1-0.1 0-0.1-0.2v-0.3h-0.1v-0.2h0.1v-0.2z"/>
		</g>
		<g id="p">
			<path id="Layer" class="s0" d="m-8.2 450.1v0.5h-0.3v-0.4-0.1q0 0 0 0 0-0.1 0-0.1-0.1 0-0.1 0-0.1 0-0.1 0.1-0.1 0-0.1 0.1v0.4h-0.2v-1.1h0.2v0.4q0.1 0 0.2 0 0-0.1 0.1-0.1 0.1 0 0.2 0.1 0.1 0.1 0.1 0.2z"/>
		</g>
		<g id="a">
			<path id="Layer" fill-rule="evenodd" class="s0" d="m-7.2 450.2v0.1h-0.6q0 0.1 0 0.1 0.1 0.1 0.2 0.1 0.1 0 0.1-0.1 0.1 0 0.2 0v0.2q-0.1 0-0.2 0 0 0-0.1 0-0.2 0-0.4-0.1-0.1-0.1-0.1-0.3 0-0.2 0.1-0.3 0.2-0.1 0.4-0.1 0.1 0 0.3 0.1 0.1 0.1 0.1 0.3zm-0.3-0.1q0 0 0-0.1-0.1 0-0.1 0-0.1 0-0.2 0 0 0.1 0 0.1z"/>
		</g>
		<g id="o">
			<path id="Layer" class="s0" d="m-6.6 449.6h0.3l0.4 0.7v-0.7h0.3v1h-0.3l-0.4-0.7v0.7h-0.3z"/>
		</g>
		<g id="b">
			<path id="Layer" fill-rule="evenodd" class="s0" d="m-5 449.8q0.2 0 0.3 0.1 0.1 0.1 0.1 0.3 0 0.2-0.1 0.3-0.1 0.1-0.3 0.1-0.2 0-0.3-0.1-0.2-0.1-0.2-0.3 0-0.2 0.2-0.3 0.1-0.1 0.3-0.1zm0 0.2q-0.1 0-0.2 0.1 0 0 0 0.1 0 0.1 0 0.2 0.1 0 0.2 0 0 0 0.1 0 0-0.1 0-0.2 0-0.1 0-0.1-0.1-0.1-0.1-0.1z"/>
		</g>
		<g id="f">
			<path id="Layer" class="s0" d="m-4.4 450.3v-0.5h0.2v0.1 0.2 0.1 0.1q0 0.1 0 0.1 0 0 0.1 0 0.1 0 0.1 0 0.1-0.1 0.1-0.2v-0.4h0.2v0.8h-0.2v-0.1q-0.1 0.1-0.1 0.1-0.1 0-0.2 0-0.1 0-0.2-0.1 0 0 0-0.2z"/>
		</g>
		<g id="e">
			<path id="Layer" class="s0" d="m-2.7 450.1v0.5h-0.2v-0.4-0.1q0 0 0 0-0.1-0.1-0.1-0.1 0 0 0 0-0.1 0-0.2 0.1 0 0 0 0.1v0.4h-0.2v-0.8h0.2v0.1q0.1 0 0.1 0 0.1-0.1 0.2-0.1 0.1 0 0.2 0.1 0 0.1 0 0.2z"/>
		</g>
		<g id="n">
			<path id="Layer" fill-rule="evenodd" class="s0" d="m-1.9 449.6h0.4q0.2 0 0.3 0.1 0.1 0.1 0.1 0.2 0 0.2-0.1 0.3-0.1 0-0.3 0h-0.2v0.4h-0.2zm0.2 0.2v0.3h0.2q0 0 0.1 0 0-0.1 0-0.2 0 0 0-0.1-0.1 0-0.1 0z"/>
		</g>
		<g id="d">
			<path id="Layer" class="s0" d="m-0.4 450q0 0 0 0-0.1 0-0.1 0-0.1 0-0.1 0.1-0.1 0-0.1 0.1v0.4h-0.2v-0.8h0.2v0.2q0.1-0.1 0.1-0.1 0.1-0.1 0.2-0.1z"/>
		</g>
		<g id="b">
			<path id="Layer" fill-rule="evenodd" class="s0" d="m0.1 449.8q0.2 0 0.3 0.1 0.1 0.1 0.1 0.3 0 0.2-0.1 0.3-0.1 0.1-0.3 0.1-0.2 0-0.3-0.1-0.1-0.1-0.1-0.3 0-0.2 0.1-0.3 0.1-0.1 0.3-0.1zm0 0.2q-0.1 0-0.1 0.1 0 0 0 0.1 0 0.1 0 0.2 0 0 0.1 0 0.1 0 0.2 0 0-0.1 0-0.2 0-0.1 0-0.1-0.1-0.1-0.2-0.1z"/>
		</g>
		<g id="m">
			<path id="Layer" class="s0" d="m0.7 449.8h0.3v0.8q0 0.1-0.1 0.2-0.1 0.1-0.2 0.1h-0.1v-0.2q0.1 0 0.1 0 0 0 0-0.1zm0-0.3h0.3v0.2h-0.3z"/>
		</g>
		<g id="a">
			<path id="Layer" fill-rule="evenodd" class="s0" d="m2 450.2v0.1h-0.6q0 0.1 0 0.1 0.1 0.1 0.2 0.1 0.1 0 0.2-0.1 0 0 0.1 0v0.2q-0.1 0-0.1 0-0.1 0-0.2 0-0.2 0-0.3-0.1-0.2-0.1-0.2-0.3 0-0.2 0.2-0.3 0.1-0.1 0.3-0.1 0.2 0 0.3 0.1 0.1 0.1 0.1 0.3zm-0.3-0.1q0 0 0-0.1-0.1 0-0.1 0-0.1 0-0.2 0 0 0.1 0 0.1z"/>
		</g>
		<g id="l">
			<path id="Layer" class="s0" d="m2.8 449.9v0.2q-0.1-0.1-0.1-0.1-0.1 0-0.1 0-0.1 0-0.2 0.1-0.1 0-0.1 0.1 0 0.1 0.1 0.2 0.1 0 0.2 0 0 0 0.1 0 0 0 0.1 0v0.2q-0.1 0-0.1 0-0.1 0-0.2 0-0.2 0-0.3-0.1-0.1-0.1-0.1-0.3 0-0.2 0.1-0.3 0.1-0.1 0.3-0.1 0.1 0 0.2 0 0 0 0.1 0.1z"/>
		</g>
		<g id="c">
			<path id="Layer" class="s0" d="m3.3 449.6v0.2h0.2v0.2h-0.2v0.3q0 0.1 0 0.1 0 0 0.1 0h0.1v0.2h-0.2q-0.2 0-0.2-0.1-0.1 0-0.1-0.2v-0.3h-0.1v-0.2h0.1v-0.2z"/>
		</g>
	</g>
</svg>