<svg version="1.2" xmlns="http://www.w3.org/2000/svg" viewBox="0 0 428 364" width="428" height="364">
	<title>noun-library-5448698 (1)-svg</title>
	<style>
		.s0 { fill: #000000 } 
	</style>
	<g id="Layer">
		<path id="Layer" fill-rule="evenodd" class="s0" d="m312.7 97.3v8.2c0 0.8-0.7 1.5-1.5 1.5-2.5 0-4.8 1-6.6 2.7-1.7 1.8-2.7 4.1-2.7 6.6 0 9.3-3.7 18.3-10.3 24.9-6.6 6.7-15.6 10.4-25 10.4h-14.4c-24.1 0-34.7-25.6-34.7-31.2 0 0 0-6.2 0.1-10.5 0-2.3-1.5-4.4-3.8-5.1-5.7-1.5-11.7-1.5-17.3 0-2.3 0.7-3.9 2.8-3.9 5.1 0.1 4.3 0.2 10.5 0.2 10.5 0 5.6-10.6 31.2-34.8 31.2h-14.4c-9.3 0-18.3-3.7-24.9-10.4-6.7-6.6-10.4-15.6-10.4-24.9 0-5.1-4.1-9.3-9.2-9.3-0.9 0-1.6-0.7-1.6-1.5v-7.5c0-0.6 0.2-1.2 0.7-1.6 0.4-0.4 1-0.7 1.6-0.7h1.9c5 0 9.8-1.5 14-4.2 2.5-1.5 5.3-2.3 8.2-2.3h3.7l61.8-36.3 5.7-3.3-4.5-2.6-0.6 0.9-13.2-7.7c-17.2-10.1-38.2-5.1-49.9 11.8l-7.5 10.9c-1.9 2.8-5.8 3.5-8.6 1.5v0.1-0.1c-1.4-0.9-2.3-2.3-2.6-4-0.3-1.6 0-3.2 1-4.6l7.5-10.8c15.5-22.5 43.4-29 66.3-15.6l13.3 7.8-0.6 1 9.4 5.5 9.4-5.5-0.6-1 13.3-7.8c22.9-13.4 50.8-6.9 66.4 15.6l7.4 10.8c1 1.4 1.3 3 1.1 4.6-0.3 1.7-1.3 3.1-2.6 4v0.1c-2.9 1.9-6.7 1.2-8.7-1.6l-7.5-10.9c-11.7-16.9-32.6-21.9-49.8-11.8l-13.3 7.7-0.6-0.9-4.4 2.6 5.6 3.3 61.8 36.3h3.7c2.9 0 5.7 0.8 8.2 2.3 4.8 2.8 10.4 4.3 16 4.2h0.7c0.8 0 1.5 0.7 1.5 1.6zm-50.2-8.1l-49.9-29.3-7.5-4.4-7.4 4.4-50 29.3h11.7c0 0 14-0.2 23.9 5.2 2.1 1.2 4.6 1.4 6.9 0.6 9.6-3.6 20.2-3.6 29.9 0 2.2 0.8 4.7 0.6 6.8-0.6 9.9-5.4 23.9-5.2 23.9-5.2z"/>
		<path id="Layer" class="s0" d="m92.8 234.8h-18.8c-3.6 0-6.9-2.3-8.1-5.7-6.7-18.4-6.7-38.7 0-57.1 1.2-3.4 4.5-5.7 8.1-5.7h18.8c-9.7 21.8-9.7 46.7 0 68.5z"/>
		<path id="Layer" class="s0" d="m131.2 234.8h-21.1c-9.6-21.8-9.6-46.7 0-68.5h21.1c-9.7 21.8-9.7 46.7 0 68.5z"/>
		<path id="Layer" fill-rule="evenodd" class="s0" d="m309.8 234.8h-159.6c-9.6-21.8-9.6-46.7 0-68.5h159.6c-9.6 21.8-9.6 46.7 0 68.5zm-44.9-55.4h-76.5c-5.2 13.6-5.2 28.6 0 42.2h76.5c-4.4-13.7-4.4-28.4 0-42.2z"/>
		<path id="Layer" class="s0" d="m341.9 234.8h-16.5c-9.6-21.8-9.6-46.7 0-68.5h16.5c1.7 0 3.2 0.8 4.2 2.2 1 1.3 1.2 3.1 0.7 4.7-6.2 17.7-6.2 37 0 54.7 0.5 1.6 0.3 3.4-0.7 4.7-1 1.4-2.5 2.2-4.2 2.2z"/>
		<path id="Layer" class="s0" d="m126 249.5c-9.7 16.7-9.7 37.3 0 54h-15.8c-3.5 0-6.6-2.1-8-5.3-6.2-13.8-6.2-29.6 0-43.4 1.4-3.2 4.5-5.3 8-5.3z"/>
		<path id="Layer" fill-rule="evenodd" class="s0" d="m347.4 303.5h-206.2c-9.6-16.7-9.6-37.3 0-54h206.2c-9.6 16.7-9.6 37.3 0 54zm-57.4-42h-106.5c-5.3 9.3-5.3 20.7 0 30h106.5c-5.3-9.3-5.3-20.7 0-30z"/>
		<path id="Layer" class="s0" d="m377.9 303.5h-15.2c-9.7-16.7-9.7-37.3 0-54h15.2c1.8 0 3.4 0.8 4.3 2.2 1 1.4 1.2 3.2 0.6 4.8-5.3 12.8-5.3 27.2 0 40 0.6 1.6 0.4 3.4-0.6 4.8-0.9 1.4-2.5 2.2-4.3 2.2z"/>
		<g id="u">
			<path id="Layer" class="s0" d="m-48.6 484.4q-0.7 0.4-1.5 0.6-0.8 0.2-1.7 0.2-2.5 0-4-1.4-1.5-1.5-1.5-3.9 0-2.4 1.5-3.9 1.5-1.4 4-1.4 0.9 0 1.7 0.2 0.8 0.2 1.5 0.6v2.1q-0.8-0.5-1.5-0.8-0.7-0.2-1.5-0.2-1.4 0-2.2 0.9-0.8 0.9-0.8 2.5 0 1.6 0.8 2.5 0.8 0.9 2.2 0.9 0.8 0 1.5-0.2 0.7-0.3 1.5-0.8z"/>
		</g>
		<g id="b">
			<path id="Layer" class="s0" d="m-40.9 479.4q-0.3-0.1-0.6-0.2-0.3-0.1-0.6-0.1-1 0-1.5 0.7-0.5 0.5-0.5 1.7v3.5h-2.5v-7.7h2.5v1.3q0.5-0.8 1.1-1.1 0.6-0.3 1.4-0.3 0.2 0 0.3 0 0.2 0 0.4 0z"/>
		</g>
		<g id="a">
			<path id="Layer" fill-rule="evenodd" class="s0" d="m-32 481.2v0.6h-5.7q0.1 0.9 0.6 1.3 0.5 0.5 1.5 0.5 0.8 0 1.6-0.3 0.8-0.2 1.6-0.7v1.9q-0.8 0.4-1.7 0.5-0.9 0.2-1.7 0.2-2.1 0-3.3-1.1-1.1-1-1.1-2.9 0-1.9 1.1-3 1.1-1 3.1-1 1.8 0 2.9 1 1.1 1.1 1.1 3zm-2.5-0.9q0-0.7-0.4-1.1-0.4-0.4-1.1-0.4-0.7 0-1.1 0.4-0.5 0.4-0.6 1.1z"/>
		</g>
		<g id="e">
			<path id="Layer" fill-rule="evenodd" class="s0" d="m-23 480.6v4.4h-2.4v-1.1q-0.5 0.7-1.2 1-0.6 0.3-1.4 0.3-1.2 0-2-0.7-0.7-0.7-0.7-1.8 0-1.3 0.9-2 0.9-0.6 2.9-0.6h1.5v-0.2q-0.1-0.6-0.5-0.8-0.5-0.3-1.4-0.3-0.8 0-1.5 0.1-0.7 0.2-1.3 0.5v-1.9q0.8-0.1 1.6-0.2 0.8-0.1 1.6-0.1 2.1 0 3 0.8 0.9 0.8 0.9 2.6zm-3.7 0.9q-0.8 0-1.2 0.3-0.4 0.3-0.4 0.8 0 0.4 0.4 0.7 0.3 0.3 0.8 0.3 0.7 0 1.2-0.5 0.5-0.5 0.5-1.3v-0.3z"/>
		</g>
		<g id="d">
			<path id="Layer" class="s0" d="m-18 475.2v2.1h2.5v1.8h-2.5v3.2q0 0.6 0.2 0.8 0.2 0.2 0.8 0.2h1.3v1.7h-2.1q-1.5 0-2.1-0.6-0.6-0.6-0.6-2.1v-3.2h-1.2v-1.8h1.2v-2.1z"/>
		</g>
		<g id="a">
			<path id="Layer" fill-rule="evenodd" class="s0" d="m-6.4 481.2v0.6h-5.7q0.1 0.9 0.6 1.3 0.6 0.5 1.5 0.5 0.8 0 1.6-0.3 0.8-0.2 1.7-0.7v1.9q-0.9 0.4-1.8 0.5-0.8 0.2-1.7 0.2-2.1 0-3.2-1.1-1.2-1-1.2-2.9 0-1.9 1.1-3 1.2-1 3.2-1 1.8 0 2.8 1 1.1 1.1 1.1 3zm-2.5-0.9q0-0.7-0.4-1.1-0.4-0.4-1.1-0.4-0.7 0-1.1 0.4-0.5 0.4-0.6 1.1z"/>
		</g>
		<g id="h">
			<path id="Layer" fill-rule="evenodd" class="s0" d="m0.7 478.5v-4.1h2.5v10.6h-2.5v-1.1q-0.5 0.7-1.1 1-0.6 0.3-1.4 0.3-1.4 0-2.4-1.1-0.9-1.1-0.9-2.9 0-1.8 0.9-2.9 1-1.1 2.4-1.1 0.8 0 1.4 0.3 0.6 0.3 1.1 1zm-1.6 4.9q0.8 0 1.2-0.6 0.4-0.5 0.4-1.6 0-1.1-0.4-1.7-0.4-0.6-1.2-0.6-0.8 0-1.2 0.6-0.4 0.6-0.4 1.7 0 1.1 0.4 1.6 0.4 0.6 1.2 0.6z"/>
		</g>
		<g id="m">
			<path id="Layer" fill-rule="evenodd" class="s0" d="m12.8 478.5q0.5-0.7 1.1-1 0.7-0.3 1.5-0.3 1.4 0 2.3 1.1 0.9 1.1 0.9 2.9 0 1.8-0.9 2.9-0.9 1.1-2.3 1.1-0.8 0-1.5-0.3-0.6-0.3-1.1-1v1.1h-2.4v-10.6h2.4zm1.7 4.9q0.7 0 1.1-0.6 0.5-0.5 0.5-1.6 0-1.1-0.5-1.7-0.4-0.6-1.1-0.6-0.8 0-1.2 0.6-0.5 0.6-0.5 1.7 0 1.1 0.5 1.6 0.4 0.6 1.2 0.6z"/>
		</g>
		<g id="l">
			<path id="Layer" class="s0" d="m19.4 477.3h2.5l2 5.2 1.7-5.2h2.5l-3.2 8.4q-0.5 1.3-1.2 1.8-0.6 0.5-1.7 0.5h-1.4v-1.6h0.8q0.6 0 0.9-0.2 0.3-0.2 0.4-0.7l0.1-0.2z"/>
		</g>
		<g id="g">
			<path id="Layer" class="s0" d="m34.5 474.8h3.4l2.3 5.5 2.3-5.5h3.4v10.2h-2.5v-7.5l-2.4 5.5h-1.6l-2.4-5.5v7.5h-2.5z"/>
		</g>
		<g id="h">
			<path id="Layer" fill-rule="evenodd" class="s0" d="m53.5 478.5v-4.1h2.5v10.6h-2.5v-1.1q-0.5 0.7-1.1 1-0.6 0.3-1.4 0.3-1.4 0-2.3-1.1-0.9-1.1-0.9-2.9 0-1.8 0.9-2.9 0.9-1.1 2.3-1.1 0.8 0 1.4 0.3 0.6 0.3 1.1 1zm-1.6 4.9q0.8 0 1.2-0.6 0.4-0.5 0.4-1.6 0-1.1-0.4-1.7-0.4-0.6-1.2-0.6-0.7 0-1.2 0.6-0.4 0.6-0.4 1.7 0 1.1 0.4 1.6 0.5 0.6 1.2 0.6z"/>
		</g>
		<g id="g">
			<path id="Layer" class="s0" d="m63.3 474.8h3.4l2.3 5.5 2.4-5.5h3.3v10.2h-2.5v-7.5l-2.3 5.5h-1.7l-2.4-5.5v7.5h-2.5z"/>
		</g>
		<g id="c">
			<path id="Layer" fill-rule="evenodd" class="s0" d="m80.8 477.2q2 0 3.1 1 1.1 1.1 1.1 3 0 1.9-1.1 2.9-1.1 1.1-3.1 1.1-2 0-3.1-1.1-1.1-1-1.1-2.9 0-1.9 1.1-3 1.1-1 3.1-1zm0 1.7q-0.8 0-1.2 0.6-0.5 0.6-0.5 1.7 0 1.1 0.5 1.7 0.4 0.6 1.2 0.6 0.8 0 1.2-0.6 0.5-0.6 0.5-1.7 0-1.1-0.5-1.7-0.4-0.6-1.2-0.6z"/>
		</g>
		<g id="f">
			<path id="Layer" class="s0" d="m94.5 480.3v4.7h-2.5v-3.6q0-1 0-1.3-0.1-0.4-0.2-0.6-0.1-0.2-0.4-0.4-0.2-0.1-0.5-0.1-0.8 0-1.2 0.6-0.5 0.6-0.5 1.6v3.8h-2.4v-7.7h2.4v1.2q0.6-0.7 1.2-1 0.6-0.3 1.4-0.3 1.3 0 2 0.8 0.7 0.8 0.7 2.3z"/>
		</g>
		<g id="t">
			<path id="Layer" class="s0" d="m96.7 477.3h2.5v7.7h-2.5zm0-3h2.5v2h-2.5z"/>
		</g>
		<g id="b">
			<path id="Layer" class="s0" d="m107.2 479.4q-0.3-0.1-0.6-0.2-0.3-0.1-0.7-0.1-0.9 0-1.4 0.7-0.5 0.5-0.5 1.7v3.5h-2.5v-7.7h2.5v1.3q0.5-0.8 1.1-1.1 0.6-0.3 1.4-0.3 0.2 0 0.3 0 0.1 0 0.4 0z"/>
		</g>
		<g id="k">
			<path id="Layer" class="s0" d="m108.4 482v-4.7h2.4v0.8q0 0.6 0 1.6v1.2q0 0.9 0.1 1.3 0 0.5 0.1 0.6 0.2 0.3 0.4 0.4 0.3 0.1 0.6 0.1 0.7 0 1.2-0.5 0.4-0.6 0.4-1.7v-3.8h2.5v7.7h-2.5v-1.1q-0.5 0.7-1.2 1-0.6 0.3-1.3 0.3-1.3 0-2-0.8-0.7-0.8-0.7-2.4z"/>
		</g>
		<g id="j">
			<path id="Layer" class="s0" d="m118 477.3h6.7v1.7l-4 4.2h4v1.8h-6.8v-1.7l4-4.2h-3.9z"/>
		</g>
		<g id="j">
			<path id="Layer" class="s0" d="m126.2 477.3h6.7v1.7l-4.1 4.2h4.1v1.8h-6.9v-1.7l4-4.2h-3.8z"/>
		</g>
		<g id="e">
			<path id="Layer" fill-rule="evenodd" class="s0" d="m141.9 480.6v4.4h-2.5v-1.1q-0.5 0.7-1.1 1-0.6 0.3-1.5 0.3-1.2 0-1.9-0.7-0.8-0.7-0.8-1.8 0-1.3 1-2 0.9-0.6 2.9-0.6h1.4v-0.2q0-0.6-0.4-0.8-0.5-0.3-1.5-0.3-0.8 0-1.4 0.1-0.7 0.2-1.3 0.5v-1.9q0.8-0.1 1.6-0.2 0.8-0.1 1.6-0.1 2 0 3 0.8 0.9 0.8 0.9 2.6zm-3.8 0.9q-0.7 0-1.1 0.3-0.4 0.3-0.4 0.8 0 0.4 0.3 0.7 0.3 0.3 0.9 0.3 0.7 0 1.1-0.5 0.5-0.5 0.5-1.3v-0.3z"/>
		</g>
		<g id="i">
			<path id="Layer" class="s0" d="m151.2 478.6q0.5-0.7 1.2-1.1 0.6-0.3 1.4-0.3 1.3 0 2 0.8 0.7 0.8 0.7 2.3v4.7h-2.5v-4q0-0.1 0-0.2v-0.3q0-0.8-0.2-1.1-0.3-0.4-0.8-0.4-0.7 0-1.1 0.6-0.4 0.6-0.4 1.6v3.8h-2.4v-4q0-1.3-0.2-1.6-0.3-0.4-0.8-0.4-0.7 0-1.1 0.6-0.4 0.6-0.4 1.6v3.8h-2.5v-7.7h2.5v1.2q0.5-0.7 1-1 0.6-0.3 1.3-0.3 0.8 0 1.4 0.3 0.6 0.4 0.9 1.1z"/>
		</g>
		<g id="e">
			<path id="Layer" fill-rule="evenodd" class="s0" d="m165.9 480.6v4.4h-2.5v-1.1q-0.4 0.7-1.1 1-0.6 0.3-1.4 0.3-1.3 0-2-0.7-0.7-0.7-0.7-1.8 0-1.3 0.9-2 0.9-0.6 2.9-0.6h1.4v-0.2q0-0.6-0.4-0.8-0.5-0.3-1.4-0.3-0.8 0-1.5 0.1-0.7 0.2-1.3 0.5v-1.9q0.8-0.1 1.6-0.2 0.8-0.1 1.6-0.1 2.1 0 3 0.8 0.9 0.8 0.9 2.6zm-3.7 0.9q-0.8 0-1.2 0.3-0.4 0.3-0.4 0.8 0 0.4 0.3 0.7 0.4 0.3 0.9 0.3 0.7 0 1.2-0.5 0.4-0.5 0.4-1.3v-0.3z"/>
		</g>
		<g id="f">
			<path id="Layer" class="s0" d="m175.9 480.3v4.7h-2.5v-3.6q0-1 0-1.3-0.1-0.4-0.2-0.6-0.1-0.2-0.4-0.4-0.2-0.1-0.5-0.1-0.8 0-1.2 0.6-0.5 0.6-0.5 1.6v3.8h-2.4v-7.7h2.4v1.2q0.6-0.7 1.2-1 0.6-0.3 1.4-0.3 1.3 0 2 0.8 0.7 0.8 0.7 2.3z"/>
		</g>
		<g id="s">
			<path id="Layer" class="s0" d="m-51.8 488.4v1.6h-1.3q-0.6 0-0.8 0.2-0.2 0.1-0.2 0.6v0.5h2.1v1.8h-2.1v5.9h-2.4v-5.9h-1.2v-1.8h1.2v-0.5q0-1.2 0.7-1.8 0.7-0.6 2.1-0.6z"/>
		</g>
		<g id="b">
			<path id="Layer" class="s0" d="m-45.1 493.4q-0.3-0.1-0.6-0.2-0.3-0.1-0.6-0.1-1 0-1.5 0.7-0.5 0.5-0.5 1.7v3.5h-2.4v-7.7h2.4v1.3q0.5-0.8 1.1-1.1 0.6-0.3 1.5-0.3 0.1 0 0.2 0 0.2 0 0.4 0z"/>
		</g>
		<g id="c">
			<path id="Layer" fill-rule="evenodd" class="s0" d="m-40.2 491.2q2 0 3.1 1 1.1 1.1 1.1 3 0 1.9-1.1 2.9-1.1 1.1-3.1 1.1-2 0-3.1-1.1-1.1-1-1.1-2.9 0-1.9 1.1-3 1.1-1 3.1-1zm0 1.7q-0.8 0-1.2 0.6-0.4 0.6-0.4 1.7 0 1.1 0.4 1.7 0.4 0.6 1.2 0.6 0.8 0 1.2-0.6 0.5-0.6 0.5-1.7 0-1.1-0.5-1.7-0.4-0.6-1.2-0.6z"/>
		</g>
		<g id="i">
			<path id="Layer" class="s0" d="m-27.1 492.6q0.4-0.7 1.1-1.1 0.6-0.3 1.4-0.3 1.3 0 2 0.8 0.7 0.8 0.7 2.3v4.7h-2.5v-4q0-0.1 0-0.2v-0.3q0-0.8-0.2-1.1-0.2-0.4-0.8-0.4-0.7 0-1 0.6-0.4 0.6-0.4 1.6v3.8h-2.5v-4q0-1.3-0.2-1.6-0.2-0.4-0.8-0.4-0.7 0-1.1 0.6-0.4 0.6-0.4 1.6v3.8h-2.4v-7.7h2.4v1.2q0.5-0.7 1.1-1 0.6-0.3 1.3-0.3 0.7 0 1.4 0.3 0.6 0.4 0.9 1.1z"/>
		</g>
		<g id="d">
			<path id="Layer" class="s0" d="m-12.1 489.2v2.1h2.5v1.8h-2.5v3.2q0 0.6 0.2 0.8 0.2 0.2 0.9 0.2h1.2v1.7h-2.1q-1.4 0-2-0.6-0.6-0.6-0.6-2.1v-3.2h-1.2v-1.8h1.2v-2.1z"/>
		</g>
		<g id="r">
			<path id="Layer" class="s0" d="m-0.4 494.3v4.7h-2.4v-3.6q0-1-0.1-1.3 0-0.4-0.1-0.6-0.2-0.2-0.4-0.4-0.3-0.1-0.6-0.1-0.7 0-1.2 0.6-0.4 0.6-0.4 1.6v3.8h-2.5v-10.6h2.5v4.1q0.5-0.7 1.2-1 0.6-0.3 1.3-0.3 1.4 0 2.1 0.8 0.6 0.8 0.6 2.3z"/>
		</g>
		<g id="a">
			<path id="Layer" fill-rule="evenodd" class="s0" d="m9.5 495.2v0.6h-5.7q0.1 0.9 0.7 1.3 0.5 0.5 1.4 0.5 0.8 0 1.6-0.3 0.8-0.2 1.7-0.7v1.9q-0.9 0.4-1.7 0.5-0.9 0.2-1.8 0.2-2.1 0-3.2-1.1-1.2-1-1.2-2.9 0-1.9 1.2-3 1.1-1 3.1-1 1.8 0 2.9 1 1 1.1 1 3zm-2.5-0.9q0-0.7-0.4-1.1-0.4-0.4-1-0.4-0.7 0-1.2 0.4-0.4 0.4-0.5 1.1z"/>
		</g>
		<g id="q">
			<path id="Layer" class="s0" d="m16.4 488.8h2.9l3.7 7v-7h2.5v10.2h-2.9l-3.7-7v7h-2.5z"/>
		</g>
		<g id="c">
			<path id="Layer" fill-rule="evenodd" class="s0" d="m31.6 491.2q2 0 3.1 1 1.1 1.1 1.1 3 0 1.9-1.1 2.9-1.1 1.1-3.1 1.1-1.9 0-3.1-1.1-1.1-1-1.1-2.9 0-1.9 1.1-3 1.2-1 3.1-1zm0 1.7q-0.8 0-1.2 0.6-0.4 0.6-0.4 1.7 0 1.1 0.4 1.7 0.4 0.6 1.2 0.6 0.8 0 1.3-0.6 0.4-0.6 0.4-1.7 0-1.1-0.4-1.7-0.5-0.6-1.3-0.6z"/>
		</g>
		<g id="k">
			<path id="Layer" class="s0" d="m37.5 496v-4.7h2.5v0.8q0 0.6 0 1.6v1.2q0 0.9 0 1.3 0.1 0.5 0.2 0.6 0.1 0.3 0.4 0.4 0.2 0.1 0.5 0.1 0.8 0 1.2-0.5 0.5-0.6 0.5-1.7v-3.8h2.4v7.7h-2.4v-1.1q-0.6 0.7-1.2 1-0.6 0.3-1.3 0.3-1.4 0-2.1-0.8-0.7-0.8-0.7-2.4z"/>
		</g>
		<g id="f">
			<path id="Layer" class="s0" d="m55.3 494.3v4.7h-2.5v-3.6q0-1 0-1.3-0.1-0.4-0.2-0.6-0.1-0.2-0.4-0.4-0.2-0.1-0.5-0.1-0.8 0-1.2 0.6-0.5 0.6-0.5 1.6v3.8h-2.4v-7.7h2.4v1.2q0.6-0.7 1.2-1 0.6-0.3 1.4-0.3 1.3 0 2 0.8 0.7 0.8 0.7 2.3z"/>
		</g>
		<g id="p">
			<path id="Layer" fill-rule="evenodd" class="s0" d="m62.5 488.8h4.4q2 0 3 0.9 1 0.8 1 2.4 0 1.6-1 2.5-1 0.9-3 0.9h-1.7v3.5h-2.7zm2.7 1.9v2.9h1.4q0.8 0 1.2-0.4 0.4-0.4 0.4-1.1 0-0.7-0.4-1-0.4-0.4-1.2-0.4z"/>
		</g>
		<g id="b">
			<path id="Layer" class="s0" d="m78.4 493.4q-0.3-0.1-0.7-0.2-0.3-0.1-0.6-0.1-1 0-1.5 0.7-0.5 0.5-0.5 1.7v3.5h-2.4v-7.7h2.4v1.3q0.5-0.8 1.1-1.1 0.6-0.3 1.5-0.3 0.1 0 0.2 0 0.2 0 0.5 0z"/>
		</g>
		<g id="c">
			<path id="Layer" fill-rule="evenodd" class="s0" d="m83.2 491.2q2 0 3.1 1 1.1 1.1 1.1 3 0 1.9-1.1 2.9-1.1 1.1-3.1 1.1-1.9 0-3.1-1.1-1.1-1-1.1-2.9 0-1.9 1.1-3 1.2-1 3.1-1zm0 1.7q-0.8 0-1.2 0.6-0.4 0.6-0.4 1.7 0 1.1 0.4 1.7 0.4 0.6 1.2 0.6 0.8 0 1.3-0.6 0.4-0.6 0.4-1.7 0-1.1-0.4-1.7-0.5-0.6-1.3-0.6z"/>
		</g>
		<g id="o">
			<path id="Layer" class="s0" d="m89.2 491.3h2.5v7.6q0 1.5-0.8 2.3-0.7 0.8-2.1 0.8h-1.2v-1.6h0.4q0.7 0 0.9-0.3 0.3-0.3 0.3-1.2zm0-3h2.5v2h-2.5z"/>
		</g>
		<g id="a">
			<path id="Layer" fill-rule="evenodd" class="s0" d="m101.6 495.2v0.6h-5.7q0.1 0.9 0.6 1.3 0.6 0.5 1.5 0.5 0.8 0 1.6-0.3 0.8-0.2 1.7-0.7v1.9q-0.9 0.4-1.8 0.5-0.8 0.2-1.7 0.2-2.1 0-3.2-1.1-1.2-1-1.2-2.9 0-1.9 1.2-3 1.1-1 3.1-1 1.8 0 2.9 1 1 1.1 1 3zm-2.5-0.9q0-0.7-0.4-1.1-0.4-0.4-1-0.4-0.7 0-1.2 0.4-0.4 0.4-0.5 1.1z"/>
		</g>
		<g id="n">
			<path id="Layer" class="s0" d="m109.7 491.6v2q-0.5-0.4-1-0.5-0.5-0.2-1.1-0.2-1 0-1.6 0.6-0.5 0.6-0.5 1.7 0 1 0.5 1.7 0.6 0.6 1.6 0.6 0.6 0 1.1-0.2 0.5-0.2 1-0.5v2q-0.6 0.2-1.2 0.3-0.6 0.1-1.2 0.1-2 0-3.2-1.1-1.2-1-1.2-2.9 0-1.9 1.2-3 1.2-1 3.2-1 0.6 0 1.2 0.1 0.6 0.1 1.2 0.3z"/>
		</g>
		<g id="d">
			<path id="Layer" class="s0" d="m114.5 489.2v2.1h2.5v1.8h-2.5v3.2q0 0.6 0.2 0.8 0.2 0.2 0.8 0.2h1.3v1.7h-2.1q-1.5 0-2.1-0.6-0.6-0.6-0.6-2.1v-3.2h-1.2v-1.8h1.2v-2.1z"/>
		</g>
	</g>
</svg>