<?xml version="1.0" standalone="no"?><svg xmlns="http://www.w3.org/2000/svg" viewBox="0 0 1440 320"><path fill=" rgba(115, 66, 214, 0.1)" fill-opacity="1" d="M0,192L21.8,176C43.6,160,87,128,131,144C174.5,160,218,224,262,256C305.5,288,349,288,393,261.3C436.4,235,480,181,524,181.3C567.3,181,611,235,655,245.3C698.2,256,742,224,785,197.3C829.1,171,873,149,916,128C960,107,1004,85,1047,112C1090.9,139,1135,213,1178,229.3C1221.8,245,1265,203,1309,202.7C1352.7,203,1396,245,1418,266.7L1440,288L1440,0L1418.2,0C1396.4,0,1353,0,1309,0C1265.5,0,1222,0,1178,0C1134.5,0,1091,0,1047,0C1003.6,0,960,0,916,0C872.7,0,829,0,785,0C741.8,0,698,0,655,0C610.9,0,567,0,524,0C480,0,436,0,393,0C349.1,0,305,0,262,0C218.2,0,175,0,131,0C87.3,0,44,0,22,0L0,0Z"></path></svg>