<?xml version="1.0" standalone="no"?><svg xmlns="http://www.w3.org/2000/svg" viewBox="0 0 1440 320"><path fill=" rgba(115, 66, 214, 0.1)" fill-opacity="1" d="M0,0L21.8,26.7C43.6,53,87,107,131,128C174.5,149,218,139,262,149.3C305.5,160,349,192,393,170.7C436.4,149,480,75,524,74.7C567.3,75,611,149,655,154.7C698.2,160,742,96,785,85.3C829.1,75,873,117,916,117.3C960,117,1004,75,1047,80C1090.9,85,1135,139,1178,138.7C1221.8,139,1265,85,1309,53.3C1352.7,21,1396,11,1418,5.3L1440,0L1440,320L1418.2,320C1396.4,320,1353,320,1309,320C1265.5,320,1222,320,1178,320C1134.5,320,1091,320,1047,320C1003.6,320,960,320,916,320C872.7,320,829,320,785,320C741.8,320,698,320,655,320C610.9,320,567,320,524,320C480,320,436,320,393,320C349.1,320,305,320,262,320C218.2,320,175,320,131,320C87.3,320,44,320,22,320L0,320Z"></path></svg>