<?xml version="1.0" standalone="no"?><svg xmlns="http://www.w3.org/2000/svg" viewBox="0 0 1440 320"><path fill="#7342d6" fill-opacity="1" d="M0,128L16,128C32,128,64,128,96,144C128,160,160,192,192,181.3C224,171,256,117,288,101.3C320,85,352,107,384,128C416,149,448,171,480,176C512,181,544,171,576,176C608,181,640,203,672,186.7C704,171,736,117,768,133.3C800,149,832,235,864,240C896,245,928,171,960,144C992,117,1024,139,1056,128C1088,117,1120,75,1152,90.7C1184,107,1216,181,1248,192C1280,203,1312,149,1344,138.7C1376,128,1408,160,1424,176L1440,192L1440,320L1424,320C1408,320,1376,320,1344,320C1312,320,1280,320,1248,320C1216,320,1184,320,1152,320C1120,320,1088,320,1056,320C1024,320,992,320,960,320C928,320,896,320,864,320C832,320,800,320,768,320C736,320,704,320,672,320C640,320,608,320,576,320C544,320,512,320,480,320C448,320,416,320,384,320C352,320,320,320,288,320C256,320,224,320,192,320C160,320,128,320,96,320C64,320,32,320,16,320L0,320Z"></path></svg>